<?xml version="1.0" encoding="UTF-8"?>
<svg version="1.1" xmlns="http://www.w3.org/2000/svg" width="109" height="67">
<path d="M0 0 C35.97 0 71.94 0 109 0 C109 22.11 109 44.22 109 67 C73.03 67 37.06 67 0 67 C0 44.89 0 22.78 0 0 Z " fill="#010101" transform="translate(0,0)"/>
<path d="M0 0 C1.258125 -0.04125 2.51625 -0.0825 3.8125 -0.125 C4.52019531 -0.14820312 5.22789063 -0.17140625 5.95703125 -0.1953125 C8 0 8 0 11 2 C10.34 3.32 9.68 4.64 9 6 C7.02 6 5.04 6 3 6 C3 6.99 3 7.98 3 9 C2.01 9 1.02 9 0 9 C0 6.03 0 3.06 0 0 Z " fill="#864015" transform="translate(14,29)"/>
<path d="M0 0 C0.38218767 1.65614657 0.71395102 3.32457024 1 5 C0 6 0 6 -2.06640625 6.09765625 C-2.89011719 6.08605469 -3.71382813 6.07445312 -4.5625 6.0625 C-5.38878906 6.05347656 -6.21507813 6.04445313 -7.06640625 6.03515625 C-7.70449219 6.02355469 -8.34257813 6.01195312 -9 6 C-9.33 4.35 -9.66 2.7 -10 1 C-6.1496895 -1.56687367 -4.41430237 -0.83288724 0 0 Z " fill="#CFCFCF" transform="translate(76,32)"/>
<path d="M0 0 C0.97066406 -0.01417969 1.94132812 -0.02835938 2.94140625 -0.04296875 C5.4375 0.1875 5.4375 0.1875 7.4375 2.1875 C7.5625 4.8125 7.5625 4.8125 7.4375 7.1875 C6.4475 7.1875 5.4575 7.1875 4.4375 7.1875 C4.4375 5.5375 4.4375 3.8875 4.4375 2.1875 C3.4475 2.5175 2.4575 2.8475 1.4375 3.1875 C0.70426204 5.20258358 0.70426204 5.20258358 0.4375 7.1875 C-0.5525 7.1875 -1.5425 7.1875 -2.5625 7.1875 C-2.5625 5.5375 -2.5625 3.8875 -2.5625 2.1875 C-3.5525 2.5175 -4.5425 2.8475 -5.5625 3.1875 C-6.29573796 5.20258358 -6.29573796 5.20258358 -6.5625 7.1875 C-7.2225 7.1875 -7.8825 7.1875 -8.5625 7.1875 C-8.5625 5.2075 -8.5625 3.2275 -8.5625 1.1875 C-5.47951949 0.15983983 -3.23119574 0.02151262 0 0 Z " fill="#E2E2E2" transform="translate(56.5625,30.8125)"/>
<path d="M0 0 C3 0.125 3 0.125 4 1.125 C4.04063832 2.79117115 4.042721 4.45888095 4 6.125 C4.66 6.455 5.32 6.785 6 7.125 C2.37 7.125 -1.26 7.125 -5 7.125 C-5 6.135 -5 5.145 -5 4.125 C-4.01 3.795 -3.02 3.465 -2 3.125 C-2.66 2.465 -3.32 1.805 -4 1.125 C-3 0.125 -3 0.125 0 0 Z " fill="#C1C1C1" transform="translate(40,30.875)"/>
<path d="M0 0 C0.99 0 1.98 0 3 0 C3 2.97 3 5.94 3 9 C-0.3 9 -3.6 9 -7 9 C-6.67 7.35 -6.34 5.7 -6 4 C-5.01 5.485 -5.01 5.485 -4 7 C-3.01 7 -2.02 7 -1 7 C-0.67 4.69 -0.34 2.38 0 0 Z " fill="#E7E7E7" transform="translate(87,29)"/>
<path d="M0 0 C1.2065625 0.0309375 1.2065625 0.0309375 2.4375 0.0625 C2.7675 1.7125 3.0975 3.3625 3.4375 5.0625 C2.1175 5.3925 0.7975 5.7225 -0.5625 6.0625 C-1.2225 5.0725 -1.8825 4.0825 -2.5625 3.0625 C-3.2225 4.0525 -3.8825 5.0425 -4.5625 6.0625 C-3.48963568 0.08511307 -3.48963568 0.08511307 0 0 Z " fill="#C3C3C3" transform="translate(83.5625,30.9375)"/>
<path d="M0 0 C2.31 0 4.62 0 7 0 C7 0.66 7 1.32 7 2 C6.01 2.33 5.02 2.66 4 3 C3.26676204 5.01508358 3.26676204 5.01508358 3 7 C2.01 7 1.02 7 0 7 C0 4.69 0 2.38 0 0 Z " fill="#D4D4D4" transform="translate(27,31)"/>
<path d="M0 0 C1 1 1 1 1.0625 3.5625 C1.041875 4.366875 1.02125 5.17125 1 6 C0.01 6 -0.98 6 -2 6 C-2 4.35 -2 2.7 -2 1 C-3.32 1.33 -4.64 1.66 -6 2 C-6.33 1.34 -6.66 0.68 -7 0 C-4.31633121 -1.3418344 -2.84719317 -0.73004953 0 0 Z " fill="#D2D2D2" transform="translate(63,32)"/>
<path d="M0 0 C0.99 0 1.98 0 3 0 C3 2.64 3 5.28 3 8 C2.01 8 1.02 8 0 8 C0 5.36 0 2.72 0 0 Z " fill="#A34E19" transform="translate(14,30)"/>
<path d="M0 0 C0.66 0 1.32 0 2 0 C2.33 1.32 2.66 2.64 3 4 C4.65 4.33 6.3 4.66 8 5 C8 5.33 8 5.66 8 6 C5.36 6 2.72 6 0 6 C-0.38218767 4.34385343 -0.71395102 2.67542976 -1 1 C-0.67 0.67 -0.34 0.34 0 0 Z " fill="#E1E1E1" transform="translate(67,32)"/>
<path d="M0 0 C2.64 0 5.28 0 8 0 C7.67 1.32 7.34 2.64 7 4 C5.68 4 4.36 4 3 4 C3 3.01 3 2.02 3 1 C2.01 0.67 1.02 0.34 0 0 Z " fill="#45210B" transform="translate(14,29)"/>
<path d="M0 0 C1.65 0 3.3 0 5 0 C4.67 1.32 4.34 2.64 4 4 C2.68 3.67 1.36 3.34 0 3 C0 2.01 0 1.02 0 0 Z " fill="#141414" transform="translate(69,33)"/>
<path d="M0 0 C2.475 0.495 2.475 0.495 5 1 C4.67 1.99 4.34 2.98 4 4 C2.68 3.67 1.36 3.34 0 3 C0 2.01 0 1.02 0 0 Z " fill="#101010" transform="translate(82,33)"/>
</svg>
